<?xml version="1.0" encoding="UTF-8"?>
<svg width="1339.4" height="847.71" version="1.1" viewBox="0 0 1339.4 847.71" xmlns="http://www.w3.org/2000/svg" xmlns:cc="http://creativecommons.org/ns#" xmlns:dc="http://purl.org/dc/elements/1.1/" xmlns:rdf="http://www.w3.org/1999/02/22-rdf-syntax-ns#">
 <metadata>
  <rdf:RDF>
   <cc:Work rdf:about="">
    <dc:format>image/svg+xml</dc:format>
    <dc:type rdf:resource="http://purl.org/dc/dcmitype/StillImage"/>
   </cc:Work>
  </rdf:RDF>
 </metadata>
 <g transform="translate(199.82 -2e-4)" fill="#fff">
  <g transform="translate(-218.97,-14.284)">
   <path d="m476.58 503.91c-1.5709 0-2.6258-24.509-2.6073-55.72v-1e-5c-1.8773-2.2341-3.7854-4.5174-5.7158-6.8403-1.4949-1.7988-2.9668-3.5777-4.4119-5.3314 0.35742-19.245 1.0033-35.621 1.848-46.55 1.2578-8.2012 2.3224-13 2.989-12.938 0.66632 0.0618 0.83211 4.9686 0.57181 13.142 0.36423 10.697 0.29983 26.268-0.17577 44.517 1.4644 1.7376 2.9462 3.5033 4.4412 5.2924 1.9306 2.3103 3.8224 4.587 5.6682 6.8205 0.0187 32.761-1.0366 57.608-2.6073 57.608z"/>
   <path d="m476.58 503.91s-29.921-0.44659-67.794-1.0119h-1e-5c-0.73972 1.5691-1.4866 3.1533-2.2396 4.7507-17.196 36.476-31.152 66.079-31.152 66.079s13.956-29.604 31.152-66.079c0.75305-1.5974 1.4999-3.1816 2.2396-4.7507h1e-5c37.873 0.56527 67.794 1.0119 67.794 1.0119z"/>
   <path d="m260.61 510.87c0.69132 0.74342 16.134-9.3446 27.463-35.918 4.3272-12.147 5.9843-23.265 8.8829-38.987 1.5921 11.628 1.7663 24.761 4.2014 38.628v2e-5c3.7106 13.571 10.678 27.157 21.386 38.575 0.15141 4.568 0.31338 9.1792 0.48375 13.848-0.30745-0.01 31.696 0.99174 31.388 0.9819 3.9e-4 1e-5 2.9278 0.0893 2.9282 0.0893 0.0615-0.71295-1.5279 17.811-1.4664 17.099 0.4234 0.10191 19.832 4.763 20.255 4.8649-0.38903 8.4641-0.77643 16.653-1.1843 24.722 20.203-22.673 30.846-47.945 35.397-69.966h1e-5c40.34 0.94177 66.225 0.36475 66.244-0.90087 0.0189-1.2656-26.264-2.6213-69.345-2.9246h-2e-5c-4.0814 22.023-13.454 47.875-31.386 71.695 1.8029-8.5547 3.6611-17.251 5.593-26.24 0.45641 0.11885-20.605-5.3549-20.149-5.2361 0.0177-0.54158 0.53611-16.703 0.55384-17.245 3.9e-4 2e-5 -2.9286-0.083-2.9283-0.0829-0.30288-9e-3 -31.139-0.85749-31.442-0.86605 0.85132-4.1832 1.6858-8.316 2.504-12.415-10.225-11.377-17.167-24.833-21.153-38.193v-1e-5c-5.2292-12.954-8.0382-26.098-11.846-38.139-6.2582 17.426-8.1308 25.459-13.928 38.707-9.4283 25.794-23.145 37.16-22.453 37.904z"/>
   <path d="m242.42 603.8c-0.90735 0.63515-10.27-11.276-23.451-29.677 0.62249-9.5909 1.452-20.248 2.4345-31.837 0.48648-5.7379 0.98288-11.38 1.4581-16.684 14.534-0.29028 27.521-0.44214 36.845-0.45222-0.28531-8.6887 0.23503-14.28 0.89583-14.28s1.1811 5.7694 0.89583 16.023c-8.8559 0.49492-21.491 1.0547-35.883 1.568-0.18973 4.8909-0.39765 10.052-0.62596 15.272-0.46149 10.553-0.95705 20.213-1.5421 29.137 11.989 17.553 19.879 30.295 18.973 30.929z"/>
   <path d="m1137.4 609.86c-0.7451-0.61552 6.5183-10.544 17.321-23.905-0.01-6.3426 0.074-13.156 0.2203-20.491 0.1112-5.5808 0.2523-11.089 0.3931-16.134-19.257-2.4627-33.234-5.1315-33.086-6.1368 0.1478-1.0054 14.891 0.54925 35.601 3.9642 0.141 5.4592 0.2818 11.503 0.3931 17.672 0.146 8.0947 0.2274 15.629 0.2203 22.472-11.843 14.049-20.317 23.176-21.063 22.559z"/>
   <path d="m468.69 376.53c9e-3 -0.79274 19.249-1.2099 42.946-0.93108s42.922 1.1484 42.912 1.9412c-9e-3 0.79274-19.249 1.2099-42.946 0.93108s-42.922-1.1484-42.912-1.9412z"/>
   <path d="m1043.4 517.26c-0.04-0.63864 10.845-1.7672 25.826-3.3766 3.4163-0.36727 7.5552-0.84782 11.405-1.1575 0.8648-0.0696 1.7228-0.13151 2.5764-0.18443 4.5378-0.27966 8.9072-0.17955 12.834 0.0696 13.139 0.83328 22.156 2.3862 22.105 2.9687-0.051 0.58251-9.203 0.0307-22.226-0.34709-3.8616-0.11153-8.1436-0.1264-12.528 0.16871-0.8364 0.056-1.6785 0.11888-2.5304 0.18741-3.9465 0.31747-7.7676 0.72017-11.377 1.0182h-1e-4c-15.078 1.2457-26.045 1.2915-26.085 0.6529z"/>
   <path d="m1072.7 433.09c-1.0792-0.17866-4.8416 19.276-12.004 42.459s-15.232 41.237-14.248 41.714c1.019 0.49372 10.741-16.941 18.035-40.543 7.2942-23.602 9.244-43.46 8.2162-43.63z"/>
   <path d="m978.79 498.07c-0.0247-0.79241 16.677-2.0871 37.321-2.7079 0.853-0.0256 1.6991-0.0494 2.5381-0.0711 19.5-0.50524 34.886 0.33878 34.888 1.0988 0 0.76004-15.41 1.1624-34.806 1.766 0.041-1e-3 -2.5741 0.0788-2.5334 0.0775-20.611 0.61967-37.383 0.62914-37.408-0.16327z"/>
   <path d="m959.6 498.75c-2.556-1.0413 2.2575-13.668 10.744-28.184 0.0165-0.0282 0.42692-0.72959 0.4434-0.75779 3.6957 7.7648 6.4958 14.024 8.0225 19.443 1.4387 5.1058 1.2789 8.4301-0.0184 8.8242-2.5947 0.7883-6.2841-10.321-8.1576-24.928 0.0414-0.17787-0.22094 0.94915-0.17956 0.77129-1.7904 7.6856-3.265 13.552-5.3645 18.355-1.9564 4.4755-4.1583 7.0194-5.4902 6.4767z"/>
   <path d="m609.09 359.35c-0.76617 0.16309 0.70549 11.174 4.1907 24.403s8.2131 23.362 8.9406 23.072-2.7491-10.693-6.1957-23.794c-3.4466-13.102-6.1694-23.844-6.9356-23.68z"/>
   <path d="m586.87 404.81c0.0903 0.0586 0.0385 0.29899 0.14074 0.45195 0.0298 0.0326 0.078 0.0582 0.11058 0.0387 0.12665 0.0883 0.38626 1e-5 0.87006 0.0779 2.3027 0.0614 2.3366-0.11665 5.8781-0.33016 3.097-0.20414 7.0357-0.3759 11.159-0.45188 10.593-0.19522 19.218 0.43074 19.216 1.2235-2e-3 0.79279-8.5716 1.4532-19.163 1.6485-4.2004 0.0774-7.9948 0.0474-11.183-0.085-2.7891-0.10592-4.4428-0.18889-6.1354-0.74754-0.49755-0.10192-0.99459-0.38867-1.2822-0.80495-0.14099-0.22927-0.14332-0.45717-0.0934-0.63015 0.16072-0.44535 0.39295-0.44956 0.48326-0.39095z"/>
   <path d="m755.56 402.79c0.0903 0.0586 0.0385 0.29899 0.14074 0.45195 0.0298 0.0326 0.078 0.0582 0.11058 0.0387 0.12665 0.0883 0.38626 1e-5 0.87006 0.0779 2.3027 0.0614 2.3366-0.11665 5.8781-0.33016 3.097-0.20414 7.0357-0.3759 11.159-0.45188 10.593-0.19522 19.218 0.43074 19.216 1.2235-2e-3 0.79279-8.5716 1.4532-19.163 1.6485-4.2004 0.0774-7.9948 0.0474-11.183-0.085-2.7891-0.10592-4.4428-0.18889-6.1354-0.74754-0.49755-0.10192-0.99459-0.38867-1.2822-0.80495-0.14099-0.22927-0.14332-0.45717-0.0934-0.63015 0.16072-0.44535 0.39295-0.44956 0.48326-0.39095z"/>
   <path d="m616.16 431.07c-0.0121-0.53255 9.9336-1.191 22.2-1.4698 12.267-0.27878 22.232-0.0728 22.244 0.45972 0.0121 0.53255-9.9336 1.191-22.2 1.4698-12.267 0.27878-22.232 0.0728-22.244-0.45972z"/>
   <path d="m715.15 431.07c0.0144 0.58995 9.3028 0.84249 20.733 0.5637s20.695-0.98385 20.681-1.5738c-0.0144-0.58995-9.3028-0.84249-20.733-0.5637-11.43 0.27879-20.695 0.98385-20.681 1.5738z"/>
   <path d="m662.63 460.36c-2.224 0.0542-4.9791-32.493-7.4198-83.146v-2e-5c2.9891-11.214 6.4733-23.136 10.442-35.958 0.25672 1.4964 4.9937 29.009 5.2504 30.505 0.58131-6.802 1.1072-13.692 1.6194-20.769 5.3195-9.8874 10.742-19.809 16.382-30.113-0.19496-0.3558 1.27 2.3179 1.0751 1.9621 4.9332 9.004 9.7056 17.724 14.41 26.424 0.15421 8.1328 0.32416 16.019 0.55654 23.819-0.51267 3.4308 5.687-38.113 5.1744-34.682v2e-5c3.6446 14.345 6.7636 27.548 9.337 39.868-1.2291 48.218-3.1496 79.06-5.3114 79.06-2.1606 0-4.0834-30.8-5.3114-78.516 0.0733-12.056 0.51661-24.94 1.2562-38.919v-1e-5c-0.28241 2.0602-4.6442 33.965-4.9266 36.025-4.3999-7.4188-8.9092-14.911-13.585-22.646-0.86483-8.6291-1.6764-17.274-2.5146-26.229-0.0636-0.67907-0.11899-1.2714-0.18256-1.9505-1.2795 10.459-2.5124 20.496-3.8198 30.493-4.9958 6.6924-9.8293 13.203-14.542 19.635 0.36298 2.4096-5.2136-34.531-4.8506-32.121 0.37087 12.362 0.50667 23.878 0.34082 34.749v1e-5c0.0133 49.884-1.1573 82.456-3.3794 82.511z"/>
   <path d="m676.77 445.21c0-0.59979 7.5968-1.0512 19.429-0.77322-0.2126-13.099-0.34504-30.99-0.34504-50.83 0-0.013 3e-3 -4.8699 3e-3 -4.857-5.5325-7e-3 -10.878-0.0258-16.006-0.0557 0.46682 27.999-0.0752 48.435-1.0599 48.435-0.98477 0-1.5267-21.026-1.0599-50.555 6.4146-0.0299 13.259-0.049 20.357-0.0557-1e-5 -0.016 3e-3 5.228 3e-3 5.244 0 21.443-0.13244 40.836-0.34504 54.221-13.191 0.27799-20.975-0.17343-20.975-0.77322z"/>
   <path d="m676.77 405.82c0-0.5297 4.5252-0.9596 10.101-0.9596s10.101 0.4299 10.101 0.9596-4.5252 0.9596-10.101 0.9596-10.101-0.4299-10.101-0.9596z"/>
   <path d="m688.89 445.21c-0.69493-0.0155-0.82114-12.925-1.0757-28.781-0.0479-2.9849-0.0987-5.7088-0.15671-8.4261v-1e-5c-0.24917-11.725-0.34382-20.348 0.22233-20.369 0.56615-0.0212 1.6149 8.4663 2.1844 20.285v1e-5c0.12932 2.6864 0.22043 5.5134 0.26791 8.4694 0.256 15.936-0.74728 28.836-1.4422 28.821z"/>
   <path d="m663.16 377.68c0.072 0.0629-0.0527 0.31336 0.0465 0.45793 0.0154 0.0124 0.0715 0.0239 0.10778 0.0222 0.23017 0.13185 0.61477 0.0515 1.2828 0.11647 1.7976 0.0239 4.4992-0.18124 7.997-0.34835 4.1912-0.21013 9.5619-0.38687 15.186-0.46381 14.18-0.19401 25.709 0.43291 25.707 1.2257-2e-3 0.7928-11.49 1.4525-25.668 1.6465-5.7317 0.0784-10.895 0.0455-15.204-0.0928-3.8319-0.11747-5.9525-0.19875-8.1804-0.76573-0.65512-0.11745-1.2283-0.33605-1.6154-0.76643-0.1805-0.19437-0.21187-0.44841-0.16695-0.64671 0.18261-0.48897 0.43576-0.44791 0.50778-0.38497z"/>
   <path d="m619.19 487.64c9e-3 0.58539 30.787 0.60797 68.702 0.0504s68.68-1.4852 68.671-2.0706c-9e-3 -0.58539-30.787-0.60797-68.702-0.0504s-68.68 1.4852-68.671 2.0706z"/>
   <path d="m617.17 460.36c-8e-3 -1.0874 31.436-2.1961 70.188-2.4749s70.208 0.37744 70.216 1.4648c8e-3 1.0874-31.436 2.1961-70.188 2.4749-38.752 0.27879-70.208-0.37744-70.216-1.4648z"/>
   <path d="m849.49 510.87c-1.6768-0.72277 7.1202-23.974 25.19-60.546l1e-5 -1e-5c9.3948 16.541 19.608 34.055 32.059 55.268 11.217 0.69835 22.781 1.4764 34.812 2.3227-0.45022-22.717 1.1552 59.293 0.70497 36.576 0.0948 5.2835 0.18377 10.511 0.26497 15.696-2.0727 3.332-4.1109 6.6138-6.1346 9.8968 27.865 0.16878 53.193 0.42838 76.195 0.81538v-1e-5c0.018-8.1222 0.057-15.774 0.1163-22.936 12.435-0.47285 23.73-0.88172 32.988-1.1904-3.0373-17.97-3.4926-29.346-2.2557-29.507 1.2367-0.1613 3.7492 11.216 5.8248 32.449-8.7879 0.81944-19.609 1.7923-31.659 2.85 0.059 7.3771 0.098 15.227 0.1163 23.529v1e-5c-25.508-0.21196-54.909-0.62786-87.442-1.2048-6e-3 -1.6733-0.068-14.693-0.074-16.366 0.48183-4.4298 0.97442-8.8902 1.4773-13.4 0.59821-5.3645 2.9348-25.934 3.533-31.298-11.735 0.14732-22.981 0.2544-33.875 0.30247-10.033-22.975-18.438-42.064-26.527-59.883v1e-5c-12.968 35.436-23.638 57.349-25.315 56.626z"/>
  </g>
  <g transform="translate(-218.97,-14.284)">
   <path d="m793.11 405.01c-2.0878-0.024-3.9541 14.904-4.1658 33.322s1.311 33.385 3.3988 33.409 3.9541-14.904 4.1658-33.322-1.311-33.385-3.3988-33.409z"/>
   <path d="m586.39 405.2c0.64355 7e-3 0.99404 14.961 0.78234 33.379s-0.90582 33.36-1.5494 33.352c-0.64355-7e-3 -0.99404-14.961-0.78234-33.379s0.90582-33.36 1.5494-33.352z"/>
   <path d="m526.18 511.62c-0.87188 0.42739-8.9095-14.039-21.547-38.615 0.0761-6.3393 0.18194-13.278 0.31613-20.724-1.1464-4.6898-2.2457-9.5625-3.3142-14.648-0.98987 4.7859-1.9427 9.7014-2.8786 14.786 0.048 6.7328 0.0851 13.701 0.1111 20.878-7.0213 13.771-14.455 28.206-22.283 43.316-0.0367 2e-3 -4.1388 0.17771-4.1756 0.1793-2.7762 0.11864-25.864 1.0779-28.64 1.1965 1.0116 14.172 1.9074 27.443 2.6699 40.208 2.8132 5.9394 5.5348 11.602 8.201 17.036-48.198 1.5501-79.756 1.005-79.763-0.31953-7e-3 -1.3245 31.042-2.1865 77.106-1.1135-3.7416-4.4237-7.6456-8.9545-11.742-13.645-0.20487-14.317-0.32392-29.471-0.39822-45.699-5.4284 0.53264 34.351-3.3521 28.923-2.8194-0.0375 4e-3 4.264-0.41051 4.2265-0.40689 6.6279-13.802 12.973-26.923 19.137-39.523 0.026-7.062 0.0631-13.917 0.1111-20.542 3.2964-5.4958 6.4237-10.781 9.3939-15.895 3.2041 5.5958 6.188 10.931 8.9583 16.033-0.41626 7.4166-0.82416 14.347-1.2179 20.695 11.194 24.038 17.675 39.196 16.805 39.622z"/>
   <path d="m614.39 576.05c2.1295 0 3.5822 32.102 2.531 80.233 14.348-0.63784 30.018-1.2945 46.479-1.9395-0.32019-16.366-0.61901-33.641-0.89073-51.58-0.19431 2e-3 25.284-0.25906 25.089-0.25694 5.9e-4 0 25.576-0.22482 25.576-0.22483 0.64107 18.061 1.2191 35.449 1.7274 51.91 15.839 0.44622 31.07 0.91133 44.949 1.3618-1.9564-48.544-1.0974-80.999 1.0427-81.038 2.1402-0.0393 4.205 33.227 4.1108 86.175-16.735-0.0127-35.792-0.0686-56.3-0.17228-0.66347-16.259-1.3259-33.509-1.9762-51.507-6.262 0.0381-12.599 0.07-19.019 0.0959-0.17473 7.1e-4 -18.482 0.057-18.656 0.0577 0.26288 17.88 0.47781 35.026 0.64333 51.202-21.144 0.46064-40.675 0.84008-57.838 1.1286-1.0512-52.49 0.40146-85.446 2.531-85.446z"/>
   <path d="m650.44 556.11c1.5625 0.0133 2.2461 22.855 1.526 50.987-0.3596 14.048-0.96531 28.861-1.384 37.803 7.6976-0.82722 12.856-0.55629 12.898 0.18572 0.0412 0.74201-5.2803 1.5952-14.716 1.7198-0.2702-8.6735-0.61849-23.483-0.73511-38.112-0.23149-29.039 0.84872-52.597 2.4112-52.583z"/>
   <path d="m727.91 556.11c1.5624 0 2.4476 23.217 1.9757 51.823-0.24875 15.081-0.7543 30.349-1.112 38.839-8.491-0.15217-13.18-0.9844-13.136-1.6864 0.0439-0.70204 4.602-0.95632 11.409-0.15238-0.35527-8.8129-0.86566-24.135-1.112-38.607-0.47184-27.72 0.41329-50.217 1.9757-50.217z"/>
   <path d="m702.6 528.11c-2.735 0.0601-3.8725-14.358-3.2126-32.4v-1e-5c-3.2128 0.0589-6.5022 0.0901-9.8959 0.0898-3.0677-3e-4 -6.0523-0.0264-8.9749-0.0752 0.686 18.626-0.43153 33.596-3.2286 33.536-2.7539-0.0586-3.304-15.816-1.6945-38.565v-1e-5c4.3288-0.0489 8.9228-0.0749 13.653-0.0752 5.2325-3.2e-4 10.301 0.0309 15.032 0.0898 1.5851 22.166 1.0149 37.341-1.6785 37.4z"/>
  </g>
  <g transform="translate(-218.97,-14.284)">
   <path d="m468.69 376.53c-2.1229-1.593 3.4663-12.038 12.414-30.329 10.714-21.903 18.967-41.263 32.517-77.838 11.115 21.563 23.741 45.491 36.926 70.941 5.8158 11.226 11.418 22.138 16.841 32.888 10.265 1.124 3.804 0.41859 14.069 1.5426 7.9362-22.963 14.392-42.122 19.928-60.314 5.5612 16.979 9.1623 31.114 11.074 42.568 10.112 1.7079 16.878 4.7198 16.509 6.8352-0.36875 2.1147-7.9065 2.634-23.24-0.0961-1.9987-10.827-3.5207-25.881-4.4028-45.612-2.6739 21.026-5.0344 44.01-7.6847 71.616-12.15 0.50991-24.947 1.0307-38.089 1.5426-4.2944-11.506-8.6208-23.334-13.067-35.611-10.078-27.83-19.536-54.482-28.278-78.397-5.7339 34.083-13.729 58.369-24.202 76.886-9.7354 17.211-19.192 24.972-21.315 23.379z"/>
   <path d="m633.57 347.48c1.5786 0.0405 3.3843-25.552 4.2765-61.07-2.943-2.5175-5.9875-5.1086-9.1138-7.7553-0.236-3.3991-0.49018-6.8275-0.75843-10.346-0.0748-0.98073-0.55065-7.1131-0.62543-8.0938 3.1022 0.66687 6.1356 1.3139 9.1187 1.9424 10.619-36.936 17.113-64.586 15.511-65.016-1.6017-0.42972-9.5363 25.7-18.238 60.778-3.0442-0.37603-6.1354-0.74978-9.29-1.1257 0.0974-1.6582-0.72282 12.419-0.62543 10.76-0.26812 4.6858-0.52256 9.2616-0.75843 13.754 3.167 2.5976 6.2724 5.1314 9.2949 7.5853-0.88174 33.664-0.37027 58.546 1.2084 58.587z"/>
   <path d="m664.25 238.56c-1.2067 0.38613-4.935-7.8912-8.3222-18.476s-5.1569-19.489-3.9503-19.875c1.2067-0.38613 4.935 7.8912 8.3222 18.476s5.1569 19.489 3.9503 19.875z"/>
   <path d="m679.59 258.5c-2.718 0.47965-6.4786-18.037-8.3943-41.331-0.28109-3.4181-0.54599-6.7504-0.81602-9.9501v1e-5c-0.77672 18.399-3.8169 31.779-6.1303 31.338s-0.1197-14.539 6.1422-33.092c0.67106 2.491 2.0181 7.4215 2.6891 9.9125 6.3111 23.324 9.2273 42.643 6.5093 43.123z"/>
   <path d="m619.76 385.83c-1.6886-0.79342 21.32-53.531 55.904-128.85 3.6875-7.9144 7.5455-16.02 11.582-24.376 3.8644 7.4458 7.8371 15.01 11.942 22.776 6.3908 16.374 12.882 33.177 19.62 50.704 22.389 58.232 14.252 37.172 36.641 95.404v-2e-5c2.1929-9.1185 13.961-58.032 16.154-67.151 15.241 43.245 22.747 70.29 21.505 70.672s-10.175-25.999-21.449-68.927c7.1161-30.252-23.117 98.265-16.001 68.013l-1e-5 1e-5c-9.4011-21.112-33.071-73.769-42.472-94.881-7.8147-17.478-15.29-34.265-22.518-50.648-1.1247-7.9237-2.247-15.645-3.3981-23.246-1.2264 8.4865-2.4695 16.705-3.7582 24.714-36.127 75.161-62.064 126.59-63.753 125.8z"/>
   <path d="m555.33 488.61c-2.0755 0.1186-4.9223-22.473-7.0974-54.685 5.1026-7.0894 10.54-14.382 16.426-22.225 0.0663-0.0884 1.4278-1.9018 1.4942-1.9902 5.3076 8.0556 10.192 15.529 14.736 22.774-1.3641 31.256-3.5908 53.118-5.6158 53.059-2.0208-0.0594-2.975-21.748-2.5476-51.258-2.2993-6.4444-4.4371-13.009-6.7411-20.179 0.13061-0.30138-0.9117 2.1033-0.7811 1.8019-3.081 7.1046-5.9277 13.613-8.9118 20.004v1e-5c1.3918 30.142 1.1107 52.581-0.9611 52.699z"/>
   <path d="m800.78 422.65c-0.0276-0.96779 19.949-2.2934 52.381-2.7311-1.4146-14.229-3.0667-29.876-5.0618-48.031 5.22-31.383 11.359-65.254 18.648-104.74 1.1462 6.658 4.2365 24.561 5.3827 31.219 4.9844 28.913 9.5186 55.382 13.746 81.142v2e-5c-1.253 14.639-2.3982 28.251-3.4629 41.481 6.724 0.17156 13.207 0.36503 19.471 0.5837 36.274 46.259 58.745 76.361 57.712 77.18-1.0334 0.81911-24.968-27.627-60.491-71.952-6.5584-0.76763-13.357-1.5958-20.415-2.4844-0.0909-14.054-0.22855-28.623-0.3948-44.427v-2e-5c-2.8066-25.589-5.4972-51.861-8.4087-80.588-2.5728-25.385-0.57103-5.6393-3.1438-31.025-4.2779 39.167-8.0555 72.73-12.033 103.89 0.34098 19.235 0.68735 35.539 1.0744 50.149-34.696 1.4802-54.976 1.3048-55.003 0.33701z"/>
   <path d="m978.79 498.07c-1.0459-0.50518 2.42-9.9588 8.962-25.009 6.542-15.05 16.191-35.658 25.774-58.564 2.7636-6.6061 5.3213-12.949 7.7086-19.144 10.423-0.36768 20.075-0.6502 28.738-0.83415 15.212 22.597 24.09 37.664 22.75 38.57-1.3388 0.90575-11.861-12.701-25.63-32.941-6.8837 0.28721-14.161 0.51764-21.886 0.69991-2.125 6.2152-4.4519 12.56-6.9973 19.059-8.7155 22.253-18.526 42.484-25.733 56.192-7.357 13.993-12.658 22.47-13.688 21.972z"/>
   <path d="m1121.4 539.24c-0.9376 0-1.7599-9.7734-2.2473-25.424v-1e-5c-10.378-14.98-19.519-34.321-26.977-61.164-1.2888-5.8116-2.4439-11.714-3.5606-17.823-3.3973-18.587-5.1408-30.959-8.602-46.704 0.081 6.131 0.1683 11.496 0.096 17.021-1.5385 8.2693-2.953 15.79-4.1717 22.041-1.3385 6.8693-2.8401 14.074-3.5877 17.323v1e-5c-0.2071 0.90009-0.4284 1.8198-0.591 2.474-0.1399 0.57582-0.269 1.0327-0.3587 1.4154-0.2119 0.11326-0.4203 0.12457-0.5766 0.0809-0.019 0.0265-0.034 0.0577-0.039 0.0648-0.01 9e-3 -0.02-7e-3 -0.033-0.0169-0.086-0.0674-0.1466-0.18411-0.1666-0.2964 0.2729-0.39007 0.451-0.60048 0.6023-0.56233 0.1326 0.0335 0.2361 0.30605 0.2232 0.81944-0.08 0.0896-0.2116 0.22337-0.4266 0.37989-0.034 0.0248-0.072 0.0577-0.1197 0.0683-0.039 9e-3 -0.069-5e-3 -0.098-0.0123-0.2092-0.22961-0.4107-0.43671-0.6161-0.54185-0.084-0.48087-0.1136-0.9595-0.1395-1.5732-0.031-0.75548-0.034-1.5957-0.014-2.5901v-1e-5c0.086-4.2996 0.5256-9.8228 1.3545-17.719 0.6731-6.4107 1.5738-13.905 2.7101-22.325 1.655-5.4392 3.6139-11.398 5.8857-17.564 5.1865 15.867 8.5019 28.106 14.004 46.534 1.8025 6.0372 3.5829 11.83 5.4395 17.536 7.3911 27.54 15.222 46.302 24.256 61.825-0.4896 16.894-1.3075 26.734-2.2473 26.734z"/>
   <path d="m1137.4 609.86c0.8666 0.104-0.1272 12.995-0.606 33.789-0.5163 22.421-0.1807 47.905 2.1472 81.225 1e-4 2e-3 0.088 1.2466 0.088 1.2489 2.2291 31.387 5.2682 59.746 7.0176 80.333 1.7493 20.586 2.3204 33.367 1.4581 33.458-0.8623 0.0911-2.9945-12.501-5.8798-32.959-2.7001-19.145-6.733-50.106-8.9046-80.382 1e-4 2e-3 -0.089-1.2591-0.089-1.2574-2.3115-32.95-2.0128-59.95-0.3007-81.893 1.6317-20.911 4.203-33.667 5.0696-33.563z"/>
   <path d="m1047.8 832.24c-1.7095 0.0425-4.1484-42.19-5.4168-94.269-1.2685-52.079-0.895-94.38 0.8146-94.421 1.7096-0.0411 4.111 42.192 5.3794 94.27 1.2685 52.078 0.9323 94.377-0.7772 94.42z"/>
   <path d="m928.11 800.03c-1.5048 0.0894-4.7879-34.545-7.3283-77.308-2.5404-42.764-3.3809-77.543-1.876-77.632 1.5048-0.0894 4.7879 34.545 7.3283 77.308 2.5404 42.764 3.3809 77.543 1.876 77.632z"/>
   <path d="m449.48 801.56c-1.0666-0.0105-1.5885-35.069-1.1651-78.256s1.6326-78.229 2.6992-78.218c1.0666 0.0105 1.5885 35.069 1.1651 78.256s-1.6326 78.229-2.6992 78.218z"/>
   <path d="m329.82 827.64c-1.4648 0.0246-3.3409-40.847-4.1877-91.232-0.84681-50.385-0.34522-91.297 1.1196-91.321 1.4648-0.0246 3.3409 40.847 4.1877 91.232 0.84681 50.385 0.34522 91.297-1.1196 91.321z"/>
   <path d="m228.58 835.31c-1.5045-0.09 0.37657-52.022 4.1989-115.92 3.8223-63.897 8.1456-115.68 9.6501-115.59s-0.37657 52.022-4.1989 115.92c-3.8223 63.897-8.1456 115.68-9.6501 115.59z"/>
   <path d="m800.78 422.65c-1.4579 0.017-3.1902-56.951-4.0625-132.96-0.0587 0.0592 12.29-12.366 12.231-12.307 9e-3 -0.42095 0.33421-15.098 0.34311-15.519 0.0328-1.4311 0.44733-18.857 0.48016-20.288-6.2451-1.0498-12.376-2.0843-18.371-3.1-0.30999-15.6-0.5511-30.082-0.7026-43.598 3.2463-4.7604 6.3803-9.3434 9.3849-13.724-0.54935-40.361-0.30131-66.828 0.69711-66.851 0.99842-0.0227 2.454 26.64 3.7652 68.147-2.8737 4.4365-5.887 9.0745-9.0239 13.889-0.15156 12.329-0.39257 25.318-0.70261 39.242 6.0279 0.98822 12.184 2.0014 18.446 3.0362-0.0447-2.106 0.52488 25.272 0.48016 23.166-0.0104-0.51864 0.35352 18.249 0.34311 17.73-0.0595 0.0593-12.255 12.179-12.314 12.238 0.87888 74.595 0.46349 130.88-0.99437 130.9z"/>
   <path d="m733.28 338.27c-1.3681 0.0428-3.0811-19.061-4.4646-47.992v-1e-5c-4.4266-5.1326-9.1872-10.696-14.199-16.596-0.64925-10.579-1.2283-21.828-1.7885-33.906-0.70812 0.0101 19.067-0.25404 18.359-0.24398 0.0159 0.36372-0.31726-7.3151-0.30134-6.9514-0.51547-12.027-0.96443-23.338-1.3058-34.366-3.6577-5.9004-7.1673-11.598-10.495-17.034 1.383-13.514 2.4771-24.282 3.4941-34.703 5.1068 0.0765 9.8123 0.16201 14.069 0.25569 1e-5 0 1e-5 -1e-5 1e-5 -1e-5 0.5345-14.334 1.8454-23.289 2.7685-23.231 0.92304 0.0577 1.0947 9.3303-0.29967 25.859h-1e-5c-4.0695 0.0937-8.5998 0.17917-13.544 0.25569 0.0748 9.1952 0.22228 18.648 0.426 29.728 3.5223 5.3281 7.1955 10.918 10.982 16.715-0.3411 12.592-0.79064 25.732-1.3058 39.629-0.01 0.26331-0.29158 7.766-0.30134 8.0293-0.61716-8e-3 -17.841-0.23642-18.459-0.24398 1.612 9.6416 3.0623 18.69 4.3478 27.456 4.794 6.0843 9.2906 11.835 13.414 17.153v1e-5c0.48106 30.819-0.0256 50.145-1.3964 50.188z"/>
   <path d="m788.51 109.7c0-2.6221 5.6421-4.0476 12.34-2.4209-2.8386-11.386-5.02-24.14-7.4918-40.189-0.62471-4.0561-1.2156-7.9606-1.8404-12.017v4e-6c-1.0594 13.113-2.3653 23.182-4.7644 31.151-2.2755 7.558-5.3523 11.782-7.4481 11.203-4.1915-1.1563 0.32317-21.049 12.332-46.622v-4e-6c3.9 14.551 0.0212 0.07904 3.9212 14.631 5.2687 19.743 9.2174 35.357 11.292 46.684-12.372 1.6939-18.341 0.13395-18.341-2.4209z"/>
   <path d="m783.91 125.04c-0.0964 2.795-18.148 4.0014-47.953 1.1322 4.4508-19.62 10.234-42.732 17.229-70.011 3.6483-14.228 7.1243-27.649 10.773-41.877 14.468 41.541 20.457 71.55 16.884 72.404s-11.592-27.714-16.865-68.73c-2.0327 10.239-5.4912 27.931-7.5239 38.17-4.8857 24.698-9.1835 45.69-13.565 64.711 24.283-1.0041 41.119 1.4053 41.022 4.2003z"/>
   <path d="m558.4 530.61c5e-3 0.90536 58.597 1.3382 130.79 0.96617 72.19-0.37203 130.78-1.4088 130.77-2.3141-5e-3 -0.90536-58.597-1.3382-130.79-0.96617-72.19 0.37203-130.78 1.4088-130.77 2.3141z"/>
   <path d="m792.34 523.9c-1.5264 0.0599-3.1326-12.737-3.6747-28.835-0.13007-3.8625-0.18741-7.5449-0.1828-10.878 1.85-2.7214 3.6145-5.2236 5.1495-7.3205-1.0239-4.6234-1.2814-7.986-0.52492-8.1923 0.76046-0.2074 2.2611 2.9081 4.0773 8.6824-1.0926 2.2828-2.4748 5.024-4.0549 8.0201 0.26385 3.2774 0.49091 6.8466 0.65805 10.563 0.68594 15.253 0.0804 27.901-1.4474 27.961z"/>
   <path d="m585.24 474.81c0.96005 0.0738 0.98932 8.5616 0.2094 19.487 1.0522 1.5167 2.1331 3.0994 3.2264 4.7282 1.5694 2.3379 3.0466 4.5946 4.4009 6.7181-0.14675 10.69-0.81236 18.157-1.7005 18.157-0.88597 0-1.5558-7.3275-1.7005-17.127-1.4708-2.1141-3.0102-4.3824-4.5785-6.751-1.0925-1.6501-2.1417-3.2622-3.1348-4.8137 0.97733-11.905 2.3164-20.472 3.2775-20.398z"/>
   <path d="m619.76 826.87c-1.3073 0.16498-4.3664-9.7137-5.3494-27.503-0.94098-17.029 0.37188-44.406 14.164-71.196 5.4682-10.571 13.264-21.218 23.959-29.655 8.4129-6.6482 18.884-11.723 30.555-13.272 1.9769-0.24695 3.9685-0.38152 5.965-0.40403 9.1929-0.10362 18.134 2.1678 25.933 6.2912 11.778 6.3365 20.543 16.025 26.657 25.974 9.4243 15.254 14.06 31.742 16.539 45.623 7.1987 39.942 1.733 65.753-0.35737 65.678-2.0903-0.0749-0.5458-26.132-9.7312-63.541-3.2041-12.958-8.1298-28.076-16.827-41.112-5.649-8.4138-13.064-16.463-22.297-21.114-5.9562-3.0692-12.838-4.7825-19.764-4.7-1.5051 0.0179-3.0002 0.12071-4.476 0.3093-8.8515 1.04-17.29 5.1245-24.362 10.423-9.0541 6.8-16.059 15.946-21.332 25.176-13.404 23.352-16.409 49.243-17.43 65.54-1.0728 17.137-0.53809 27.32-1.8454 27.485z"/>
   <path d="m919.67 635.88c0.0466-1.4902 27.575-1.8406 61.447-0.78209 33.872 1.0585 61.325 3.127 61.278 4.6172s-27.575 1.8406-61.447 0.78209c-33.872-1.0585-61.325-3.127-61.278-4.6172z"/>
   <path d="m327.52 644.32c-0.0491-1.5725 27.401-3.7078 61.273-4.7663s61.402-0.64134 61.452 0.93116c0.0491 1.5725-27.401 3.7078-61.273 4.7663s-61.402 0.64134-61.452-0.93116z"/>
   <path d="m536.15 596.76c1.0674 0.0267 1.4183 20.666 0.78321 46.07-0.63511 25.404-2.0169 46-3.0843 45.974-1.0674-0.0267-1.4183-20.666-0.78321-46.07 0.63511-25.404 2.0169-46 3.0843-45.974z"/>
   <path d="m841.43 596c-0.75674 0-1.3709 21.649-1.3709 48.323s0.61417 48.323 1.3709 48.323 1.3709-21.649 1.3709-48.323-0.61417-48.323-1.3709-48.323z"/>
   <path d="m559.48 554.48c5e-3 0.90536 58.597 1.3382 130.79 0.96617 72.19-0.37203 130.78-1.4088 130.77-2.3141-5e-3 -0.90536-58.597-1.3382-130.79-0.96617-72.19 0.37203-130.78 1.4088-130.77 2.3141z"/>
  </g>
 </g>
 <text transform="rotate(-2.4405)" x="-34.592361" y="839.30463" fill="#ffd700" font-family="sans-serif" font-size="120px" style="line-height:1.25" xml:space="preserve"><tspan x="-34.592361" y="839.30463" fill="#ffd700" font-family="LillyBelle" font-size="120px">Connie's Disneyland App</tspan></text>
</svg>
